<?xml version="1.0" encoding="UTF-8" standalone="no"?>
<!-- Created with Inkscape (http://www.inkscape.org/) -->

<svg
   xmlns:dc="http://purl.org/dc/elements/1.1/"
   xmlns:cc="http://creativecommons.org/ns#"
   xmlns:rdf="http://www.w3.org/1999/02/22-rdf-syntax-ns#"
   xmlns:svg="http://www.w3.org/2000/svg"
   xmlns="http://www.w3.org/2000/svg"
   xmlns:sodipodi="http://sodipodi.sourceforge.net/DTD/sodipodi-0.dtd"
   xmlns:inkscape="http://www.inkscape.org/namespaces/inkscape"
   width="354.33069"
   height="354.33069"
   id="svg2"
   version="1.1"
   inkscape:version="0.48.5 r10040"
   inkscape:export-filename="D:\Dropbox\CloudySky\Sandbox\bunnylogo.png"
   inkscape:export-xdpi="90"
   inkscape:export-ydpi="90"
   sodipodi:docname="bunnylogo.svg">
  <defs
     id="defs4" />
  <sodipodi:namedview
     id="base"
     pagecolor="#ffffff"
     bordercolor="#666666"
     borderopacity="1.0"
     inkscape:pageopacity="0.0"
     inkscape:pageshadow="2"
     inkscape:zoom="0.9899495"
     inkscape:cx="340.80743"
     inkscape:cy="200.02545"
     inkscape:document-units="mm"
     inkscape:current-layer="layer1"
     showgrid="false"
     units="mm"
     inkscape:window-width="1280"
     inkscape:window-height="660"
     inkscape:window-x="-8"
     inkscape:window-y="-8"
     inkscape:window-maximized="1" />
  <metadata
     id="metadata7">
    <rdf:RDF>
      <cc:Work
         rdf:about="">
        <dc:format>image/svg+xml</dc:format>
        <dc:type
           rdf:resource="http://purl.org/dc/dcmitype/StillImage" />
        <dc:title></dc:title>
      </cc:Work>
    </rdf:RDF>
  </metadata>
  <g
     inkscape:label="Layer 1"
     inkscape:groupmode="layer"
     id="layer1"
     transform="translate(0,-698.03149)"
     style="display:inline">
    <path
       style="fill:#aaaaaa;fill-opacity:1;stroke:none"
       d="m 614.64091,835.66615 -2.5803,2.21777 -0.77953,2.62038 -0.13591,10.10384 5.75546,-14.61202 z"
       id="path3829"
       inkscape:connector-curvature="0"
       sodipodi:nodetypes="cccccc" />
    <path
       style="fill:#aaaaaa;fill-opacity:1;stroke:none"
       d="m 620.90044,835.55464 -9.14033,21.44924 1.91242,9.00537 13.59741,-30.83242 z"
       id="path3833"
       inkscape:connector-curvature="0"
       sodipodi:nodetypes="ccccc" />
    <path
       style="fill:#aaaaaa;fill-opacity:1;stroke:none"
       d="m 635.83206,834.14879 -15.42123,34.50359 c 1.23679,0.4717 4.21988,-0.6384 5.47653,-0.22402 l 22.15155,-0.35338 13.16846,-3.19165 2.52394,-3.94592 -1.07706,-24.18446 -1.3725,-3.18452 -3.88956,-0.7958 z"
       id="path3835"
       inkscape:connector-curvature="0"
       sodipodi:nodetypes="cccccccccc" />
    <path
       style="fill:#aaaaaa;fill-opacity:1;stroke:none"
       d="m 566.22275,836.70937 -20.0748,37.10829 15.75485,-0.77883 30.59297,-4.03548 2.52321,-2.65119 -0.0963,-8.47595 -0.18288,-15.33313 -0.85156,-4.00883 -3.04553,-2.32267 -22.76786,0.31004 z"
       id="path3823"
       inkscape:connector-curvature="0" />
    <path
       style="fill:#aaaaaa;fill-opacity:1;stroke:none"
       d="m 561.29012,836.74793 -18.85459,35.76365 -1.71566,-2.59446 -0.73541,-2.5449 16.57671,-30.59238 z"
       id="path3825"
       inkscape:connector-curvature="0" />
    <path
       style="fill:#aaaaaa;fill-opacity:1;stroke:none"
       d="m 552.90188,837.10304 -13.21938,23.51024 -1.81621,-15.68024 -0.0567,-4.23883 0.92044,-1.78339 2.19382,-1.49873 z"
       id="path3827"
       inkscape:connector-curvature="0" />
    <path
       style="fill:#dddddd;fill-opacity:1;stroke:none"
       d="m 561.50403,745.55192 c -3.00483,1.13599 -5.89756,5.26693 -5.89756,5.26693 l -4.87035,9.35651 -2.89539,7.14407 0.6324,1.70934 5.05418,3.35279 12.24037,12.40262 6.24048,7.3928 4.05977,6.33056 3.87271,6.84638 2.18342,2.55883 1.35855,-0.22779 0.48324,-2.68658 -2.58346,-13.57565 -5.50293,-16.82407 -5.42079,-14.93067 -4.84502,-10.40295 -3.302,-3.72523 z"
       id="path3837"
       inkscape:connector-curvature="0" />
    <path
       style="fill:#aaaaaa;fill-opacity:1;stroke:none"
       d="m 562.31393,745.54129 -0.81198,0.0113 c -3.00484,1.136 -5.89588,5.26327 -5.89588,5.26327 l -4.86918,9.35974 -2.89532,7.14585 0.63082,1.70507 5.05422,3.3546 c -1.1409,-9.68822 10.43227,-21.92463 16.93021,-12.71241 L 565.6143,749.2684 z"
       id="path3857"
       inkscape:connector-curvature="0"
       sodipodi:nodetypes="cccccccccc" />
    <path
       style="fill:#dddddd;fill-opacity:1;stroke:none"
       d="m 610.81635,803.26739 5.23137,1.27104 2.66167,-8.56368 6.4241,-15.2026 9.80271,-19.46472 3.49506,-11.30115 -3.10381,-12.06624 -3.75368,-0.16592 c 0,0 1.13079,-2.45884 -1.33242,-0.1872 -2.46321,2.27162 -5.72474,6.5876 -5.72474,6.5876 0,0 -3.40428,5.24327 -5.18124,9.10715 -1.77696,3.8639 -5.72157,15.5257 -5.72157,15.5257 0,0 -1.81639,7.95944 -2.13696,10.50718 -0.32057,2.54775 -1.28416,15.43863 -1.28416,15.43863 z"
       id="path3928"
       inkscape:connector-curvature="0" />
    <path
       style="fill:#aaaaaa;fill-opacity:1;stroke:none"
       d="m 635.32795,737.94281 -3.75194,-0.16776 c 0,0 1.12797,-2.45749 -1.33562,-0.18603 -2.46321,2.27162 -5.72159,6.5846 -5.72159,6.5846 0,0 -3.40563,5.24621 -5.18258,9.11009 -1.77696,3.86389 -5.72284,15.52069 -5.72284,15.52069 0,0 -0.37899,1.68369 -0.81094,3.67958 4.20831,-7.55965 9.50405,-15.8052 13.50042,-17.7775 4.93892,-2.43747 7.47866,-2.98746 11.25377,-1.88074 l 0.87433,-2.81881 -3.10301,-12.06412 z"
       id="path3930"
       inkscape:connector-curvature="0" />
    <path
       style="fill:#000000"
       d="m 656.87492,700.54992 c -5.48388,-2.5648 -11.4055,0.96153 -16.6105,5.70215 -6.75169,6.31946 -14.35281,14.62564 -19.25148,22.11664 -9.24193,13.364 -13.9405,27.09935 -17.34821,42.27736 -1.6592,8.76291 -1.24635,25.78259 -1.52142,30.8736 -0.0358,0.66246 -0.39561,0.97583 -0.67182,0.92536 -2.53899,0.75521 -4.97426,1.09188 -7.19428,1.45498 -2.00569,-0.73989 -1.67932,-4.12027 -2.18303,-6.52109 -0.29112,-1.38996 -0.58455,-2.69 -0.6545,-2.89508 -4.83652,-14.50899 -9.00009,-30.40616 -15.54747,-44.21853 -0.2797,-1.06807 -0.82001,-1.70355 -1.19437,-2.58484 -1.53803,-3.71687 -3.38474,-8.26993 -5.33425,-11.47669 -2.00591,-3.37431 -3.68611,-5.41542 -7.07427,-7.58516 -0.36837,-0.23138 -0.76752,-0.44047 -1.20114,-0.6269 -3.0354,-1.30493 -7.46996,-1.56505 -10.43625,-1.59723 -3.60901,-0.0392 -16.49021,1.62975 -25.58164,18.73157 -11.67513,8.58279 -4.1457,31.57732 -9.7737,41.07582 -0.86623,1.65835 -1.38466,3.24182 -0.49571,4.68095 9.25853,4.17314 16.70515,-2.3046 22.43715,-8.318 3.78757,-3.82437 7.29786,-8.7411 9.7903,-12.9488 0.38801,-0.62352 0.77928,-0.51998 3.13304,0.83885 0.18362,-0.20471 4.79274,3.51626 4.94894,3.52957 0.0674,-0.005 0.18873,0.11959 0.26895,0.27883 0.0801,0.15915 0.3988,0.51736 0.70716,0.79687 2.56533,2.65405 4.8225,4.99784 7.23337,7.59007 7.10678,7.0418 12.31655,15.39204 17.23895,24.9138 0.17179,0.22022 0.31921,0.53014 0.33527,0.68793 0.0162,0.15745 0.1193,0.27336 0.22798,0.25998 0.10865,-0.0134 0.16844,0.052 0.12816,0.13962 -0.0856,0.1862 0.84076,0.48187 1.56288,0.50155 0.5761,0.0157 1.73761,-0.60176 2.17731,-1.15836 0.1679,-0.96388 0.11719,-2.12878 -0.0743,-3.05027 -0.004,-0.70001 -0.84916,-4.11388 -0.71723,-4.43199 -1.83044,-5.41348 -2.0563,-11.94452 -4.08201,-16.70962 -0.17005,-0.28266 -0.28636,-0.56485 -0.25761,-0.62735 -3.09123,-9.24303 -7.09916,-20.19125 -10.67514,-28.10741 -0.22298,-0.48478 -0.3663,-0.9752 -0.3181,-1.08961 0.0482,-0.11432 -0.004,-0.24753 -0.11578,-0.30148 -0.23891,-0.11537 -0.9519,-1.70863 -0.85715,-1.91465 -0.63222,-1.64888 -2.03358,-2.96001 -2.82702,-4.29762 -0.83067,-1.10473 -1.39195,-2.2152 -2.57701,-2.898 -0.13954,-0.079 -0.26014,-0.14055 -0.36926,-0.18214 -0.32733,-0.1261 -0.57779,-0.0919 -1.10725,0.0866 -0.4525,0.15238 -0.86851,0.39061 -0.92905,0.52225 -0.0606,0.13165 -0.25518,0.22953 -0.42934,0.21837 -0.17429,-0.0114 -0.28915,0.0459 -0.25815,0.12952 -8.08479,7.4326 -12.90154,23.98957 -16.55409,29.81531 -2.52511,2.56839 -4.81691,5.97026 -6.54939,7.4265 -4.17761,4.416 -11.89482,8.90687 -16.9778,8.70005 -1.25321,-0.0771 -3.59062,-1.03521 -3.98392,-1.63356 -0.1264,-0.19228 -0.19318,-0.54722 -0.14912,-0.78228 0.3859,-2.1831 1.4455,-3.13598 2.13481,-5.16836 3.44317,-11.52693 2.37931,-30.66144 8.88087,-37.97384 5.80682,-6.53101 14.01712,-17.41748 24.4377,-17.52616 12.31354,0.0209 15.4706,5.64974 20.62218,16.01883 0.23839,0.43155 0.48875,0.99917 0.5558,1.26095 0.067,0.26184 0.30278,0.67225 0.52419,0.91132 0.22143,0.23912 0.37313,0.49766 0.33671,0.57686 -0.0365,0.0793 0.042,0.19307 0.16966,0.25179 0.12773,0.0588 0.23154,0.17308 0.23032,0.25487 -10e-4,0.0819 0.31257,0.71839 0.7021,1.41515 0.3895,0.69685 0.82284,1.50347 0.96409,1.79009 6.12441,16.44417 13.15096,30.7805 15.47323,47.82107 0.0147,0.60508 0.11038,1.16284 0.38982,2.28312 0.0795,0.31883 0.33884,1.98017 0.38891,2.48749 0.0217,0.21977 0.14058,0.69001 0.26371,1.04595 0.12309,0.35601 0.18716,0.72655 0.14287,0.82286 -0.0442,0.0962 0.18505,0.35284 0.508,0.56873 0.61352,0.41046 1.72206,0.51305 2.17875,0.20142 1.20351,-0.30143 2.43148,-0.35236 3.63674,-0.58029 1.97271,-0.82907 4.06241,0.13423 5.83395,-0.12215 0.43909,-0.20226 0.4653,-0.25512 0.5996,-1.26333 0.0771,-0.57882 0.1017,-1.2043 0.0556,-1.3894 -0.17479,-1.05338 -0.11011,-1.82197 -0.34202,-2.75138 -0.13131,-0.32358 -0.23839,-0.89863 -0.24117,-1.28386 -0.39905,-9.49612 0.41362,-20.13369 1.99895,-28.86111 2.54647,-12.9994 7.1384,-27.0084 15.59538,-39.58659 6.08547,-8.95633 12.91564,-16.48659 21.989,-23.66108 3.40158,-2.64604 6.73291,-4.49949 9.72008,-4.62671 3.42979,0.49469 4.80704,1.5049 6.7268,3.42871 1.75008,2.26015 1.72609,5.54879 1.85548,8.3129 0.0601,1.60644 -0.0359,3.15658 -0.2264,4.6621 -0.11078,2.7004 -0.55035,5.20624 -1.0301,7.86712 -0.0126,0.0489 -0.0242,0.22225 -0.0278,0.38438 -0.006,0.27315 -0.42611,2.36832 -0.63795,3.18197 -1.98081,12.17887 -7.17221,24.6769 -13.23174,35.22199 -3.39826,6.08325 -8.0966,12.4974 -12.65883,17.51289 -0.38597,0.42332 -0.73896,0.84185 -0.78712,0.92886 -0.0479,0.0873 -0.31035,0.41336 -0.58183,0.72539 -0.6326,0.72707 -2.48345,3.1052 -2.73133,3.51009 -0.16322,0.26658 -0.66601,0.84914 -1.41506,1.63304 -0.10873,0.11389 -0.22491,0.3062 -0.25856,0.42722 -0.0337,0.12109 -0.14629,0.18096 -0.24791,0.13422 -0.10168,-0.0468 -0.19315,0.0229 -0.20693,0.15309 -0.0138,0.13022 -0.29538,0.55922 -0.62484,0.95383 -0.58624,0.70222 -0.86843,1.17391 -2.56837,4.32977 -0.4913,0.91202 -0.88345,1.48651 -0.94874,1.38826 -0.0643,-0.0968 -0.14653,0.0118 -0.19344,0.25858 -0.0445,0.23442 -0.27929,1.22445 -0.5235,2.20439 -0.67501,2.7088 -0.84111,3.77412 -0.70351,4.49854 0.069,0.36335 0.0826,0.75984 0.0288,0.88207 -0.054,0.12215 -0.0444,0.45855 0.0219,0.74857 0.10322,0.45206 0.22115,0.5587 0.81064,0.72033 0.37822,0.10383 1.47958,0.49645 2.45062,0.87878 0.97101,0.38238 2.60442,0.91138 3.63084,1.17329 2.18187,0.55681 4.10996,1.30472 8.17168,3.17473 1.62284,0.74632 2.94727,1.36422 2.94351,1.3724 5.05563,2.81058 8.53073,6.40784 12.47654,10.00755 0.28175,0.20001 2.13445,2.44866 2.23022,2.70747 0.0243,0.0659 0.32157,0.48828 0.66128,0.93713 0.70605,0.93268 0.71926,1.37875 0.0332,1.25026 -0.9208,0.24377 -1.92714,0.0529 -2.96194,0.1521 -0.0709,0.0353 -0.58084,0.0755 -1.13481,0.0925 -13.98247,1.86537 -28.46689,1.41134 -41.29508,3.30701 -6.01685,2.91293 -2.61629,12.87503 -4.64283,15.37193 -1.43269,0.33835 -2.65688,0.62476 -4.06516,0.59429 -0.99062,-1.07715 -0.77673,-2.40379 -1.07491,-3.64079 -0.61837,-2.85905 -0.76959,-5.84365 -2.48215,-8.42115 -1.35037,-1.91823 -3.88934,-3.14606 -7.06467,-3.42273 -0.99766,-0.0869 -1.97044,-0.20637 -2.16309,-0.26248 -10.21189,0.20238 -21.13688,1.42548 -31.39208,1.39461 -0.13854,-0.0637 -0.33171,-0.0631 -0.42886,10e-4 -0.27216,0.18079 -1.25123,-0.33574 -1.35286,-0.71529 0.24494,-1.91127 4.80114,-7.69893 6.17834,-8.36048 2.96215,-2.6816 6.58994,-4.82042 9.52943,-7.02418 0.9221,-0.71621 1.3522,-1.00354 1.2936,-0.86967 4.96881,-4.70549 -10.66885,5.25681 -12.92685,7.20559 -0.35682,0.38103 -0.88479,0.82382 -1.17374,0.98687 -1.28521,1.01844 -2.28488,2.08072 -3.56633,3.12611 -0.45538,0.36854 -0.85081,0.76945 -0.88168,0.89158 -0.031,0.12248 -0.11712,0.19435 -0.19155,0.16013 -0.12508,-0.0575 -0.71261,0.55987 -1.49037,1.56741 -0.17615,0.22817 -0.44436,0.4073 -0.59251,0.39773 -0.20634,-0.0133 -0.24391,0.0562 -0.17959,0.29597 0.0554,0.20679 0.0258,0.28495 -0.0882,0.2325 -0.10457,-0.0481 -0.27449,0.20693 -0.42796,0.64722 -0.32222,0.92442 -0.97533,1.63434 -1.44467,1.57595 -0.20026,-0.0248 -0.39216,0.0161 -0.42597,0.0896 -0.065,0.1414 -2.49855,0.44587 -2.72619,0.34118 -3.76573,-0.52885 -6.70371,0.9745 -10.00927,1.67113 -0.93606,0.19472 -2.07648,1.1941 -2.81601,1.76451 -4.07136,4.7456 0.4741,17.90489 0.27143,23.79447 -0.0227,0.3166 -0.11377,0.45511 -0.31754,0.47457 -0.15739,0.0149 -0.32549,0.10053 -0.36715,0.19111 -0.0417,0.0907 -0.39974,0.29859 -0.80234,0.46261 -10.62935,6.43007 -13.03657,14.2751 -13.62471,20.30432 -0.15402,1.57891 2.50241,2.86413 2.48289,4.13601 -0.0366,2.38415 -2.72453,4.29595 -3.45007,5.01485 -10.16698,10.08416 -18.67753,21.17391 -21.17354,31.08203 -2.18653,3.71493 0.34158,9.18718 2.42217,12.38402 16.82221,20.12087 22.11234,26.85443 33.83706,53.15083 0.21064,0.097 0.37223,0.3149 0.36135,0.4827 -0.03,0.464 -0.37783,1.1353 -0.49601,0.9572 -2.96471,1.4942 -4.78919,7.0318 -4.51756,9.9311 0.0358,0.3478 0.27406,1.22001 0.52995,1.93791 0.25588,0.718 0.44531,1.4592 0.42203,1.6463 2.76964,5.7147 5.38875,12.1474 9.95586,14.6385 1.86335,1.012 2.63199,1.4725 2.67841,1.598 0.0228,0.061 0.31312,0.144 0.63945,0.1884 0.69301,0.092 2.35265,0.6924 3.86507,1.3927 2.74364,1.2728 4.07646,1.9562 4.09521,2.1068 0.011,0.091 0.32665,0.2195 0.70324,0.2926 0.53822,0.1042 3.5725,1.3352 7.5781,3.0755 40.46195,18.3885 61.73367,27.121 98.6878,43.4119 20.43719,7.9037 37.28108,15.1737 56.49703,23.1213 3.00854,1.2436 8.16341,3.1203 9.95227,3.6212 0.91925,0.2574 2.05766,0.5997 2.52767,0.7652 0.47,0.1655 1.25427,0.3848 1.74398,0.4856 17.49957,4.8593 36.28694,6.6789 55.26675,6.9041 0.0139,0.01 0.0241,0.011 0.0354,0 0,0 0,0 0.004,-0.01 7.215,0.085 14.24618,-0.1961 20.23819,-1.094 15.93907,-2.3884 41.93568,-8.7548 74.23435,-29.7034 2.11352,-1.319 2.93969,-2.2673 5.23038,-2.0257 0.7882,0.085 1.58088,0.2248 2.43419,0.1284 0.69058,-0.088 1.1538,0.057 2.01396,0.6407 0.71617,0.4858 1.38617,0.8176 4.26928,2.1062 0.36261,0.1612 0.68744,0.3294 0.72351,0.37 0.0359,0.041 0.47072,0.2825 0.96355,0.5363 0.49278,0.2537 1.02111,0.57 1.17091,0.706 0.14943,0.1362 0.83987,0.5568 1.53906,0.9312 0.69903,0.3748 1.76203,0.9696 2.36419,1.3232 8.90878,4.5927 21.94313,7.2632 30.31499,3.7947 4.73845,-4.0198 3.74274,-7.7005 -0.53771,-9.9907 -0.52351,-0.2787 -0.99902,-0.565 -1.05269,-0.6394 -0.0535,-0.074 -0.85253,-0.4917 -1.77615,-0.9285 -0.92348,-0.437 -1.91828,-0.9944 -2.21244,-1.2346 -2.18072,-1.583 -4.74625,-3.162 -7.0912,-5.5512 -2.68528,-2.9182 -5.70135,-6.1557 -7.72475,-9.2745 -1.23456,-1.9309 -3.22717,-4.3352 -4.63968,-5.727 -1.02585,-1.1358 -2.94851,-2.4449 -4.10518,-2.8002 -0.83864,-0.2578 -1.34284,-0.9646 -1.17615,-1.6394 1.24441,-2.9511 -0.62866,-7.7682 -1.44047,-10.3623 -1.1275,-6.8589 -2.88753,-15.8777 -1.64237,-21.893 -0.01,-0.9191 -0.0877,-1.7932 -0.49743,-2.6429 -0.31337,-0.9692 -1.37867,-1.3766 -2.37693,-1.7137 -0.98082,-0.1748 -1.89065,0.1634 -2.61541,0.721 -0.98207,0.6351 -1.95011,1.2011 -2.7691,1.811 -7.90799,6.6055 -11.22046,14.7563 -17.9871,21.1505 -1.10166,0.9603 -3.06954,2.0851 -4.98894,2.3601 -0.23101,0.033 -1.10313,0.078 -1.93183,0.098 -0.82888,0.021 -1.54353,0.068 -1.58843,0.1073 -20.44429,-7.8577 -26.178,-41.98411 -34.75595,-53.86531 -0.27776,-0.346 -0.56879,-0.8424 -0.65166,-1.1065 -0.0829,-0.264 -0.35397,-0.7432 -0.60239,-1.0651 -13.73389,-26.01188 -31.18473,-49.83132 -54.92614,-67.39868 -2.56782,-2.08401 -5.00771,-3.77192 -7.88556,-5.3083 -12.80524,-6.82465 -33.56957,-19.19516 -48.62785,-14.52523 -2.8093,0.98483 -2.94829,1.01751 -4.51168,0.90399 -0.33245,-0.0241 -0.83434,0.0309 -1.11862,0.12478 -0.29423,0.0972 -0.84802,0.0623 -1.2843,-0.0817 -0.66365,-0.21903 -0.83258,-0.37013 -1.26286,-1.12693 -0.56,-0.98508 -1.39034,-1.54816 -3.87265,-2.63119 -1.15298,-0.50317 -1.63069,-0.61954 -2.4085,-0.59254 -1.62653,0.0565 -1.76258,0.006 -2.07401,-0.78005 -0.15392,-0.38876 -0.25636,-0.765 -0.22637,-0.83021 -0.7184,-1.84671 -1.26304,-2.23787 -2.35259,-3.21058 -2.1991,-2.23706 -5.4974,-3.40127 -7.74308,-3.33753 -0.42722,0.0128 -0.56086,-0.50774 -0.2811,-1.11608 0.12851,-0.27943 0.31315,-0.85036 0.40269,-1.26696 0.0896,-0.41677 0.34292,-1.3888 0.56532,-2.16036 0.22233,-0.77143 0.39702,-1.49539 0.38649,-1.60961 -0.0106,-0.11407 0.0102,-0.2831 0.0483,-0.37497 0.0378,-0.0918 0.0504,-0.45132 0.0269,-0.80062 -0.0235,-0.34931 0.0325,-1.03846 0.12667,-1.53044 0.15579,-0.81355 0.19511,-1.54515 0.1889,-3.56849 -0.006,-1.92262 -0.85289,-4.48863 -2.04633,-6.19756 -0.39719,-0.56871 -0.75347,-1.0478 -0.79417,-1.06652 -0.0407,-0.0187 -0.35958,-0.37578 -0.70717,-0.79687 -0.62481,-0.75647 -2.33764,-2.35254 -3.06764,-2.85676 -0.20721,-0.14317 -0.59783,-0.45976 -0.86811,-0.70331 -0.27013,-0.24387 -0.64909,-0.58579 -0.84219,-0.75968 -2.71452,-2.42736 -5.86664,-4.32019 -8.97536,-6.31218 -0.55624,-0.27452 -1.17341,-1.15487 -1.07953,-1.53907 -0.23322,-3.28 -0.12732,-5.93064 -0.43531,-9.09339 -0.14725,-4.68441 -0.90704,-8.39878 -7.70351,-9.86047 -0.90557,0.0366 -1.02185,-0.006 -1.49763,-0.58946 -0.38246,-0.46927 -2.85803,-2.27276 -3.70576,-2.69721 -0.26629,-0.13347 -0.50513,-0.29426 -0.52897,-0.36118 -2.18056,-1.92011 -3.98323,-4.15507 -6.24102,-5.86145 -0.44675,-0.33483 -1.32315,-1.05249 -1.94674,-1.59657 -1.18749,-1.03606 -1.67756,-1.40509 -2.58359,-1.93909 -0.30076,-0.17728 -0.63668,-0.41846 -0.74659,-0.53572 -1.40585,-1.50003 -13.16297,-6.82285 -14.84433,-6.72119 -0.2204,0.0133 -1.15829,-0.28976 -2.08568,-0.67373 -0.92741,-0.38391 -1.93255,-0.7644 -2.23005,-0.84559 -0.61356,-0.16746 -0.8798,-0.74823 -0.84956,-1.83671 0.01,-0.35044 -0.0228,-0.6559 -0.0726,-0.6788 -0.0498,-0.0229 0.0122,-0.24008 0.13563,-0.48375 0.12328,-0.24366 0.23797,-0.66011 0.25747,-0.9242 0.0397,-0.53804 1.58482,-4.33669 2.924,-7.19474 1.3647,-2.91263 3.67348,-6.55776 4.59952,-7.26198 0.1554,-0.11819 0.34193,-0.35215 0.41713,-0.51565 0.0752,-0.1635 0.26799,-0.34146 0.42593,-0.3999 0.19732,-0.073 0.23218,-0.13527 0.10724,-0.19273 -0.11326,-0.0521 0.0364,-0.26407 0.39539,-0.56288 0.63347,-0.52707 1.33428,-1.38137 1.42201,-1.72913 0.0309,-0.12228 0.13331,-0.18695 0.22743,-0.14366 0.0941,0.0433 0.25163,-0.10183 0.3528,-0.3218 0.10122,-0.22011 0.279,-0.41233 0.39479,-0.42664 0.11574,-0.0143 0.26263,-0.13924 0.32647,-0.27807 0.10723,-0.23315 0.46442,-0.58298 1.63051,-1.60222 3.99765,-4.58619 8.57873,-10.71012 11.50648,-15.56046 5.68095,-7.84816 10.37663,-21.75086 11.6204,-31.09751 0.006,-0.0518 0.0246,-0.17736 0.0362,-0.28124 0.0117,-0.10379 0.11394,-0.59302 0.23204,-1.08483 0.57789,-4.34205 1.75506,-8.85835 2.13883,-12.93642 0.0845,-0.91815 0.18256,-1.799 0.2163,-1.95471 0.1254,-0.57877 0.26752,-2.58387 0.21015,-2.99395 -0.0327,-0.23341 0.0136,-0.92711 0.10621,-1.53989 -0.20454,-5.3263 -1.57847,-8.66743 -4.93926,-11.74184 -0.23057,-0.21115 -0.99445,-0.68767 -1.69713,-1.05978 z m -24.21548,35.55748 c -2.87102,-0.42723 -4.97562,2.62686 -6.45387,4.39846 -7.61725,12.59125 -13.28436,24.44727 -15.54995,37.01062 -0.36072,3.30447 -1.3219,8.69678 -1.30767,14.49899 0.0121,4.93736 -0.41654,10.69272 1.18162,12.96664 0.34496,0.0944 0.93753,0.26356 1.3217,0.37823 0.3842,0.11461 0.91446,0.13642 1.17478,0.05 0.26032,-0.0865 1.00938,-0.1085 1.66845,-0.0519 1.59905,0.13732 2.03566,-0.0272 2.44032,-0.90709 0.17801,-0.38707 0.29286,-0.78256 0.25634,-0.88126 -0.0365,-0.0987 -0.0445,-0.22689 -0.0169,-0.28705 4.42382,-16.21991 13.99626,-32.96525 19.24718,-44.32142 2.01186,-4.04207 2.58436,-10.19771 2.41174,-14.39347 -0.0268,-1.84972 -0.8282,-3.25388 -1.34802,-4.66625 -0.67965,-2.4466 -2.9826,-3.26623 -5.02569,-3.79448 z m 1.12168,2.13563 c 0.86825,0.38939 1.0739,0.56883 1.50058,1.29826 2.88603,6.22398 1.95064,13.21312 -0.35436,19.15011 -8.25991,14.26618 -12.86734,28.53752 -18.40859,41.87713 -0.2308,0.54924 -0.45593,1.27404 -0.49755,1.60815 -0.0416,0.33416 -0.18678,0.72971 -0.32448,0.881 -0.22996,0.25269 -0.93807,0.3138 -1.19503,0.10204 -0.0594,-0.049 -0.144,-0.0108 -0.18891,0.0869 -0.0449,0.0977 -0.15785,0.10868 -0.2516,0.0208 -0.0938,-0.0879 -0.36154,-0.0991 -0.59861,-0.0208 -0.23703,0.0782 -0.65061,0.0947 -0.91474,0.0323 -0.26412,-0.0624 -0.62484,-0.12391 -0.80668,-0.13517 -0.96522,-1.0164 -0.5231,-2.07339 -0.68979,-3.35816 -1.44951,-18.74592 5.43022,-41.52508 14.29457,-55.77774 2.34327,-3.1077 4.80817,-7.37397 8.43518,-5.76486 z m -71.63699,7.81594 c 1.78208,0.82176 3.16299,3.61135 3.77155,5.02366 0.0402,0.15396 0.25512,0.53231 0.48158,0.84206 0.55561,0.76048 1.20876,2.27026 2.12336,4.92353 3.806,8.0699 6.67112,17.51817 8.93765,24.03159 -0.0792,0.0525 0.005,0.53761 0.18655,1.07876 2.09161,6.59653 3.39451,12.52371 5.23935,18.70024 -0.0514,1.39044 1.18944,6.3457 -0.27567,6.94187 -0.45418,0.16796 -0.61258,0.1079 -0.71511,-0.2668 -0.0429,-0.15603 -0.2924,-0.5613 -0.55412,-0.90025 -0.26178,-0.33876 -0.53583,-0.84452 -0.6068,-1.12308 -0.0711,-0.2784 -0.21847,-0.54731 -0.32727,-0.59734 -3.81574,-8.39372 -11.09596,-16.81361 -16.09985,-22.7081 -0.0211,-0.0728 -0.38409,-0.44949 -0.80684,-0.83652 -0.42275,-0.38705 -0.83425,-0.85252 -0.91423,-1.03485 -3.02909,-3.69682 -6.26407,-6.07473 -8.91451,-8.4687 -1.61891,-0.90758 -2.57875,-2.1279 -4.30224,-2.88461 -0.56496,-0.23858 -1.10706,-1.10937 -0.93969,-1.5058 3.2056,-6.72762 6.92001,-19.06692 12.68696,-21.44696 0.35516,-0.004 0.69927,0.0792 1.02932,0.23134 z m 101.68385,83.37241 c 0.4445,0.20662 0.64861,0.36929 0.78049,0.56995 0.14791,0.22497 0.61058,0.62233 1.02784,0.88228 0.61941,0.3859 0.81017,0.62778 1.03003,1.33632 0.40568,4.34922 0.6216,10.54259 0.2213,14.75415 0.23546,5.1244 1.14017,17.61212 -0.58094,20.47949 -0.50089,0.74621 -1.47632,1.45262 -1.93991,1.39785 -13.1835,3.51149 -27.57442,2.7676 -40.14813,2.89118 -3.27597,0.0481 -3.90246,0.0123 -4.67357,-0.2689 -0.40439,-0.14756 -0.83398,-0.25635 -0.95646,-0.2413 -0.26583,0.0328 -1.12235,-0.23649 -2.6971,-0.8556 -2.44596,-0.77483 -5.01332,-1.96444 -6.00782,-4.35786 -0.20624,-0.51473 -0.34429,-1.00564 -0.30549,-1.09002 -0.34261,-1.42245 -0.50483,-2.89484 -0.71724,-4.43199 -0.70219,-2.1865 -0.12722,-5.42945 -0.99687,-7.35952 -0.3474,-0.75665 -0.46958,-0.86633 -1.59247,-1.40881 -1.08718,-0.52507 -1.33874,-0.57318 -2.3469,-0.48357 -0.62055,0.0551 -1.33505,0.18194 -1.58504,0.28886 -0.77688,0.37025 -2.06876,0.79413 -2.46639,1.4226 -0.4973,1.9824 -0.48269,4.17253 -0.41908,6.02571 -0.50825,1.86117 -0.34392,5.95149 -0.80771,7.49151 -0.14033,0.4564 -0.26938,1.06481 -0.28877,1.35663 -0.0203,0.30257 -0.26836,0.91488 -0.5742,1.42399 -0.29541,0.4918 -0.6005,0.99992 -0.6746,1.12954 -0.0742,0.12976 -0.34548,0.36241 -0.60378,0.51669 -0.25833,0.15427 -0.71857,0.49521 -1.02246,0.75238 -0.47367,0.40082 -0.85536,0.47387 -2.69995,0.52702 -14.98994,1.29215 -30.874,4.0503 -44.55716,4.85392 -3.09044,0.24886 -6.18182,0.13439 -8.83491,-1.77308 -3.48891,-3.99038 -2.86534,-11.44855 -4.24455,-16.04584 -0.71845,-6.85228 -3.03574,-15.29211 -0.99503,-20.76362 1.7908,-3.10563 5.62639,-3.2099 8.00793,-4.01267 2.13181,-0.77465 4.78712,-0.35923 6.70164,-0.59192 0.31319,-0.0469 0.63925,-0.0536 0.72615,-0.0136 0.0868,0.0399 0.29713,0.0251 0.46818,-0.033 5.25486,0.0245 16.53227,-1.00826 27.44127,-0.95633 4.23566,0.0202 8.36934,-0.15817 12.14271,0.49289 2.09853,0.34868 3.7539,0.44891 5.40668,1.3197 0.78826,0.41106 1.4557,1.25627 1.92069,2.4224 1.07093,2.56998 1.86006,5.66988 2.01117,8.13629 0.0305,2.64138 1.6041,4.16893 3.79502,4.04151 1.52007,0.1002 2.58688,-0.01 3.46664,-0.84468 0.98025,-1.18438 1.4124,-2.39898 1.44661,-3.91476 -0.0886,-1.87008 -0.2476,-3.408 0.01,-5.18987 0.22413,-4.94175 1.81648,-6.97978 6.68995,-7.44875 0.0834,0.0384 0.67888,-0.0107 1.32341,-0.11127 12.68238,-1.4712 27.24855,-1.90192 38.86772,-3.00835 1.24707,-0.0373 2.37193,-0.0359 2.50021,0.002 0.12834,0.0376 0.6096,0.0186 1.06833,-0.0424 0.45868,-0.0608 1.24998,-0.11209 1.75737,-0.11029 0.50739,0.002 0.99022,-0.0398 1.07415,-0.0956 0.084,-0.0557 0.87387,0.16755 1.75702,0.49774 0.47259,0.17672 0.82753,0.31706 1.09419,0.44112 z M 547.8931,778.57182 c -1.45229,-0.69211 -2.82439,-1.02371 -3.92358,-0.71216 -0.0407,0.0885 -0.11653,0.0906 -0.17128,0.008 -0.0548,-0.0826 -0.35377,-0.0304 -0.66499,0.11 l -0.56435,0.25554 0.54249,0.15637 c 12.32127,5.43243 25.7568,21.53305 31.62599,32.15703 0.71444,1.37419 0.74987,3.14557 2.05003,2.82941 0.42631,-0.11405 0.93653,-1.15803 0.63379,-1.29726 -0.11865,-0.0546 -0.32426,-0.46175 -0.45843,-0.9059 -6.71038,-11.35722 -18.90128,-26.60873 -29.06966,-32.60118 z m 64.26283,39.99844 c -0.57262,0.21196 -1.48758,0.9298 -1.51528,1.18976 -0.03,0.28066 0.40498,0.52281 0.5139,0.28598 0.0414,-0.0901 0.18681,-0.11268 0.32127,-0.0508 0.13448,0.0618 0.40794,0.002 0.60863,-0.13589 0.39124,-0.26804 2.92623,-0.41707 3.57815,-0.21003 0.21679,0.0688 0.40398,0.20912 0.41628,0.30933 0.0123,0.10023 0.41426,0.35807 0.88919,0.57649 l 0.86059,0.39578 0.15212,-0.51961 c 0.0845,-0.28773 0.0714,-0.51115 -0.0314,-0.4985 -0.10281,0.0127 -0.15679,-0.0504 -0.11793,-0.13492 0.0389,-0.0846 -0.0945,-0.32878 -0.29765,-0.54029 -2.2544,-2.01537 -3.46992,-1.38896 -5.37783,-0.66727 z m 69.93457,40.47196 c 1.04121,1.18507 2.214,3.16073 2.88055,4.85592 0.33942,0.86366 0.5712,1.58686 0.51412,1.60798 -0.11114,0.0411 -0.10157,0.11245 0.24171,1.37718 0.123,0.45327 0.17987,0.91784 0.12701,1.03276 -0.0527,0.11465 -0.0201,0.54321 0.0714,0.95132 0.21589,0.96274 0.0182,2.28852 -0.52369,3.51378 -2.33605,5.04633 -5.85609,8.82334 -9.31972,12.37085 -0.38019,0.37484 -0.74027,0.74813 -0.803,0.82846 -0.0628,0.0805 -0.43033,0.42234 -0.81297,0.75565 -0.38256,0.33313 -0.82694,0.75419 -0.98873,0.93542 -0.16165,0.18109 -0.39893,0.3772 -0.5255,0.44096 -0.29587,0.14924 -1.37942,2.26783 -1.41824,2.77348 -0.0379,0.4928 0.9915,1.45689 1.3974,1.30672 0.15058,-0.0557 0.52281,-0.59603 0.82376,-1.19748 0.30095,-0.60151 0.74558,-1.31643 0.99021,-1.58639 0.24456,-0.26977 0.46276,-0.52688 0.48596,-0.57088 0.23613,-0.44834 1.23652,-1.43736 2.3781,-2.35066 0.76672,-0.61338 1.43431,-1.20261 1.48598,-1.31496 0.0517,-0.11237 0.50046,-0.50096 0.99356,-0.86494 0.49322,-0.36427 0.94089,-0.75475 0.99356,-0.86498 1.22008,-0.92899 2.21416,-1.81373 3.47294,-2.58567 0.6941,-0.40941 2.54103,-0.43555 3.93438,-0.04 0.84321,0.23937 1.40463,0.50954 2.0321,0.96569 0.47739,0.34673 0.96735,0.698 1.09266,0.78177 0.58936,0.39418 1.77143,1.54525 2.10292,2.05317 0.20284,0.31041 0.53869,1.06087 0.74298,1.66359 0.31494,3.32983 -0.4715,4.4733 -1.64285,7.56669 -0.92055,1.33605 -2.20543,2.20267 -2.92959,3.38791 -0.40353,0.66827 -0.40551,0.73123 -0.0423,1.02313 0.42501,0.34156 1.20535,0.21289 1.4079,-0.22753 0.12286,-0.26715 1.30991,-1.66739 1.77829,-2.09902 0.15814,-0.14568 0.45549,-0.5268 0.66359,-0.84915 1.13007,-1.58972 2.20193,-2.63014 2.99889,-5.13097 -0.10257,-0.18304 0.58515,-0.70522 0.80016,-0.60634 0.075,0.0345 0.292,0.011 0.47995,-0.0585 0.46719,-0.17282 1.87555,0.29595 3.86177,1.29191 3.5748,1.56862 3.81376,7.12985 2.61814,9.96071 -0.49007,1.06083 -0.54115,1.29446 -0.32023,1.39805 0.14587,0.0671 0.42315,0.3293 0.61945,0.58276 0.44762,0.57792 0.40029,0.56516 0.89387,0.25593 0.36156,-0.22641 0.43176,-0.37838 0.53599,-1.12501 0.66262,-2.20648 1.07942,-3.76586 1.99383,-5.77938 0.4808,-1.07062 0.69656,-1.20039 3.36665,-1.97674 6.5025,-1.10047 12.27155,-2.64989 17.91007,-0.76822 0.99283,0.33494 2.05565,0.64724 2.36373,0.68987 0.30807,0.0426 0.87252,0.17549 1.25346,0.29719 13.57383,4.09038 22.42701,9.84499 33.7272,17.06232 21.31719,16.78141 39.0824,35.6332 56.91942,68.17872 0.39373,0.4007 0.91337,1.7655 0.78095,2.0534 -0.0542,0.1178 0.01,0.3191 0.14316,0.4444 0.33862,0.3187 0.69793,0.8982 0.7404,1.197 9.00006,14.4911 12.27364,44.00691 31.41891,53.03801 5.57332,0.755 9.70078,-0.346 13.61308,-3.5698 4.06346,-6.57 9.5864,-12.5919 14.34935,-18.4358 1.44308,-1.4406 3.3582,-2.3586 4.6374,-2.8508 1.70615,-0.6536 1.8095,-0.6668 2.36628,-0.3143 0.54864,0.3473 1.19153,1.2249 1.08776,1.4808 0.94014,7.0883 2.28344,14.5261 2.97871,21.1733 -0.0386,0.084 0.0517,0.3917 0.20414,0.6896 0.24251,1.6522 0.50898,2.4148 0.56085,3.814 0.24644,2.6267 0.3295,4.8284 -0.44794,6.5337 -0.2992,0.6506 -0.49522,1.2611 -0.43527,1.3513 0.0597,0.09 -13.49415,0.5102 -8.05251,1.4092 -0.19115,0.127 7.86169,-0.9818 10.13649,0.064 0.94668,0.4354 1.77751,0.9056 1.84559,1.0474 0.068,0.1415 0.3165,0.3788 0.5544,0.5218 5.55531,4.9312 9.35456,11.2986 14.67249,15.6099 0.9368,1.1088 1.9775,1.6575 3.12242,2.6027 0.14464,0.1605 0.64335,0.5335 1.10928,0.8266 1.07714,0.6778 1.09906,0.6945 2.31935,1.65 0.56224,0.4401 1.17254,0.897 1.35766,1.0153 0.18505,0.1184 0.3825,0.2883 0.44115,0.3767 0.12161,0.183 1.35227,0.9018 3.28177,1.9189 0.83273,0.4388 1.40936,0.8501 1.56529,1.117 7.48858,12.482 -20.16894,7.126 -23.9782,5.6233 -0.82712,-0.339 -1.55372,-0.7023 -1.61329,-0.8101 -4.84559,-3.0843 -10.51115,-6.0994 -15.62913,-9.0784 -0.38828,-0.1325 -9.36174,-4.9233 -9.76842,-4.9854 -0.3772,-0.057 -3.2464,-0.8725 -2.11983,-0.046 1.8717,1.3724 7.30032,3.8779 7.01459,4.5739 -0.43918,1.0699 -3.55796,2.0864 -4.49483,2.6903 -26.52303,16.7434 -49.11298,24.4981 -74.38316,29.1348 -24.53961,1.7542 -50.83649,0.8524 -73.75192,-5.0474 -4.75709,-1.7917 -9.6719,-3.3227 -13.97808,-5.0692 -19.17722,-7.4452 -40.51618,-15.25 -56.9159,-23.0472 -3.6115,-1.6895 -4.90509,-1.917 -8.9201,-4.1518 -39.76468,-16.3415 -65.35494,-29.3869 -104.76638,-45.3757 -0.12026,0.08 -0.19333,0.035 -0.21369,-0.1291 -0.0197,-0.1595 -0.54215,-0.4892 -1.44768,-0.914 -4.64283,-1.841 -7.29336,-6.9752 -9.98186,-10.3312 -0.35267,-0.2838 -0.61403,-0.5675 -0.58332,-0.6343 -3.78008,-7.14841 -0.90406,-12.12681 1.70979,-13.92551 0.35261,-0.3554 1.11369,-0.6481 1.52842,-0.2679 3.16317,4.8859 17.93653,8.23781 7.28835,2.329 -4.20411,-2.3312 -5.97669,-5.8154 -6.3211,-6.5988 -9.21356,-20.9573 -27.84559,-43.90098 -36.73488,-54.76629 -0.8042,-1.0309 -1.20182,-2.38852 -1.52123,-3.62223 -2.50022,-13.5688 9.07095,-25.0996 14.51228,-32.03177 1.00412,-0.9942 2.01511,-1.69381 2.99224,-2.47159 3.27076,-1.77701 5.96391,-7.34835 6.85574,-6.00096 4.90797,6.33919 4.58608,9.69795 8.21979,12.35893 -4.52036,-1.22844 -6.59142,4.95759 -5.47899,7.86085 0.83929,7.13061 7.13749,13.46296 11.79854,16.44784 0.32974,0.21229 1.35457,0.78179 2.27905,1.26534 2.4831,1.29874 4.08819,2.17656 5.35295,2.92097 1.17816,0.6334 2.564,0.85623 2.15065,-0.19625 -0.26883,-0.6793 -0.36576,-0.76524 -1.09687,-0.98856 -0.44196,-0.13468 -0.86377,-0.24056 -0.93599,-0.23184 -0.0725,0.009 -0.38933,-0.18675 -0.70551,-0.43614 -0.31603,-0.24968 -0.7845,-0.5909 -1.03633,-0.75585 -0.25183,-0.1649 -0.96397,-0.65677 -1.58219,-1.09378 -0.61812,-0.43722 -1.94927,-1.19085 -2.95852,-1.67712 -4.62091,-2.07393 -7.30185,-6.70311 -9.85826,-10.6404 -2.01966,-3.27946 -2.31834,-9.96432 0.31559,-11.75177 0.53955,-0.24708 0.66987,-0.2231 1.70709,0.2824 2.23707,0.77765 2.7535,1.23459 3.06294,-0.61456 -5.09411,-3.57053 -5.86673,-10.50613 -9.20397,-14.55962 -0.53827,-0.95749 -0.9357,-1.40459 -1.79345,-2.38873 -6.94948,-8.52896 8.68383,-25.65407 10.71855,-18.98857 2.39556,3.68148 -0.10705,9.85227 4.04849,11.73554 0.93902,0.40422 4.07875,1.50937 4.87203,1.71311 3.00628,0.78706 5.6408,0.24391 8.20828,-0.0356 1.17749,-0.12598 2.35112,-0.29751 2.60877,-0.38276 13.99143,-2.4104 26.61311,-3.3519 37.56949,-4.67909 0.0611,-0.0537 0.18533,-0.0637 0.2768,-0.0216 0.47906,0.22032 4.14796,-0.71534 5.34977,-1.27295 0.78906,-0.47474 1.59313,-1.04431 2.15556,-1.67381 0.50818,-0.38097 1.0883,-1.75385 1.20149,-2.84211 0.0515,-0.49404 0.18923,-1.09967 0.30181,-1.34446 0.91531,-3.80379 0.35787,-7.38578 0.81806,-10.88765 0.31311,-2.40408 0.70384,-3.18429 1.78931,-3.53992 1.12254,-0.29653 3.69637,1.60427 3.59021,2.55716 0.43129,5.27206 0.96578,9.71632 2.91911,14.39369 0.30252,0.73902 -0.0124,0.55801 4.04823,2.28991 0.17867,0.0756 0.43055,0.11084 0.56008,0.0776 1.66984,0.10509 4.72882,1.88897 4.75428,3.44003 -1.25742,5.24619 -10.05465,2.06405 -15.16628,4.68006 -2.36276,1.23392 -4.32816,1.72534 -5.38146,1.00048 -0.77345,-0.53223 -0.6544,-1.34983 -0.49115,-2.37314 0.0771,-0.48334 0.0785,-0.90723 0.005,-0.9412 -1.53876,0.59206 -3.99119,2.15405 -3.61154,3.75073 3.94169,3.53638 8.15882,1.09213 11.93742,-0.41201 0.0969,-0.10196 0.28501,-0.18107 0.4656,-0.18924 0.002,8.4e-4 0.006,-0.003 0.008,-0.003 0.2565,-0.10331 0.51247,-0.20154 0.76474,-0.29995 0.45183,-0.33109 1.09205,-0.5305 1.68705,-0.56461 0.007,-0.002 0.0134,6.8e-4 0.0179,0.002 4.69953,-0.33277 10.86673,1.65688 12.98346,-4.38687 -0.43484,-1.00003 -1.75808,-2.08747 -0.31839,-2.18201 0.321,-0.0161 0.77773,-0.0838 1.01422,-0.15418 0.2364,-0.0702 0.8198,-0.0602 1.29482,0.0183 12.70643,0.28919 24.34325,-0.54861 36.38005,-1.31005 1.06886,-0.0679 2.68689,-0.13646 3.58769,-0.14979 1.26,-0.019 1.82777,-0.1312 2.47394,-0.49443 4.69855,-4.07403 1.28686,-12.8593 2.65626,-17.88049 0.10989,-0.23895 0.14275,-0.46189 0.0671,-0.4967 -0.21613,-0.0994 -0.16233,-1.03646 0.0612,-1.06412 0.10745,-0.0132 0.85369,0.2407 1.66573,0.56128 4.49443,1.15342 8.11404,3.40286 11.11638,6.82511 z m -87.64221,-35.35329 c -0.28507,-0.1333 -0.78786,0.29267 -0.86653,0.73718 -0.0937,0.52884 -1.43024,2.5037 -2.03618,3.01061 -0.27616,0.23116 -0.76856,0.52944 -1.09346,0.66383 -0.32498,0.13462 -0.61494,0.29807 -0.64417,0.36164 -0.0291,0.0633 -0.49355,0.2959 -1.03024,0.5129 -0.53672,0.21704 -0.99713,0.44652 -1.03027,0.51295 -0.0329,0.0668 -0.45142,0.20104 -0.92621,0.3002 -0.47478,0.0991 -0.93689,0.25453 -1.02576,0.3412 1.33428,1.20645 6.56825,-1.36592 7.29301,-2.10727 0.38663,-0.4228 0.82368,-0.89206 0.9701,-1.04334 0.72159,-0.74509 0.99015,-3.00959 0.38971,-3.2899 z m 110.93072,79.67506 c -0.0217,-0.004 -0.0495,-0.008 -0.0784,-0.005 -0.11582,0.0144 -0.22574,0.059 -0.24404,0.0988 -0.0183,0.0397 0.0408,0.10561 0.13096,0.14707 0.0901,0.0415 0.2001,-0.003 0.24399,-0.0987 0.033,-0.0718 0.0108,-0.12497 -0.0526,-0.1421 z m -83.67655,-32.65446 c -0.0414,-0.005 -0.0828,-0.009 -0.12407,-0.0136 0.0337,0.006 0.0785,0.01 0.12407,0.0136 z m -1.13112,-0.10439 c -0.30943,-0.0149 -0.61237,-0.0113 -0.90534,0.0119 0.17197,0.006 0.36561,0.002 0.60527,-0.007 0.10123,-0.004 0.2015,-0.004 0.30007,-0.005 z m 101.90969,47.05331 c -1.36264,-0.61335 -2.79991,-1.10053 -3.84664,-1.31764 -3.41528,0.30539 -7.71659,-0.97896 -11.06638,0.12167 -1.85665,0.49767 -1.42072,1.66265 -0.79545,2.16994 0.54975,0.25283 1.36805,0.30924 3.36061,0.23603 0.75008,-0.0275 1.45241,-0.009 1.55791,0.04 0.10548,0.0485 0.36931,0.0341 0.58673,-0.0343 1.58247,-0.11345 3.16609,0.15276 4.71731,0.29524 2.08336,0.0906 4.02233,0.8078 5.51595,2.04023 0.43548,0.35937 1.38387,1.11481 2.10831,1.67709 1.18613,0.92067 1.81352,1.50688 3.04797,2.87254 0.21712,0.24042 0.54397,0.59846 0.72724,0.79371 0.69902,0.74402 3.39987,4.06056 3.42704,4.2074 0.0158,0.0844 0.19888,0.39547 0.40106,0.69331 0.68516,1.01 0.93853,2.87124 0.51944,3.78251 -0.6017,3.45674 -1.27326,5.70826 -2.28645,8.64228 -0.6581,0.84953 -2.31031,1.30191 -3.24541,1.36223 -0.47025,0.0274 -1.074,0.13379 -1.34214,0.23298 -0.38752,0.14323 -1.7217,0.21357 -1.95939,0.10426 -0.0276,-0.0127 -0.11302,-0.19067 -0.18956,-0.39748 -0.0981,-0.26509 0.002,-0.69256 0.34891,-1.4469 0.46195,-1.00447 0.47345,-1.12211 0.18248,-1.90819 -0.32121,-1.0437 -0.49243,-2.30173 -1.38669,-2.9898 -0.62415,-0.44229 -1.56416,-0.57564 -2.34945,-0.32958 -0.31819,0.0999 -1.2129,0.19755 -1.98604,0.21617 -1.46684,0.0351 -6.39364,0.71695 -7.21065,0.99705 -2.695,0.55057 -5.64313,1.24839 -7.84701,1.59808 -0.59314,0.0937 -1.20576,0.21398 -1.36377,0.2665 -0.15809,0.0527 -0.65134,0.19209 -1.09983,0.31337 -0.44857,0.12145 -1.491,0.47681 -2.31802,0.7896 -1.318,0.22889 -2.3709,0.74681 -3.48021,1.27904 -0.25987,0.081 -0.80166,0.33626 -1.19992,0.57147 -0.59838,0.35369 -0.71978,0.50635 -0.6986,0.85784 0.0298,0.49254 0.19308,0.60309 0.635,0.441 0.17371,-0.0639 0.46168,-0.13256 0.6409,-0.15211 0.17928,-0.0197 1.40453,-0.47854 2.72172,-1.01968 1.31713,-0.54102 2.51837,-0.96967 2.66827,-0.95744 0.14981,0.0124 0.76538,-0.1308 1.36722,-0.31451 1.48824,-0.45384 5.69748,-1.40131 5.87053,-1.32172 0.077,0.0354 0.81844,-0.10297 1.64999,-0.30863 2.64909,-0.66358 5.64386,-0.74032 8.00983,-1.16943 1.81158,-0.22471 4.50171,-0.55409 5.50821,0.7211 0.58593,0.75588 0.58212,0.76906 -0.0227,2.70778 -0.26151,0.83816 -0.44552,1.72003 -0.4128,1.96367 0.0328,0.24364 0.0193,0.5949 -0.0301,0.78055 -0.0494,0.18562 0.0175,0.4895 0.14821,0.67634 0.28087,0.40143 0.62054,0.41445 1.9927,0.0662 0.51539,-0.13067 0.97714,-0.22089 1.02795,-0.19752 0.0508,0.0234 0.46207,-0.0849 0.91287,-0.2442 0.45084,-0.15933 1.15552,-0.2871 1.57009,-0.28331 1.50818,0.15518 2.04645,-0.29071 2.93706,-1.06962 2.37247,-3.4574 3.15208,-5.9728 4.6902,-9.51032 0.55226,-0.53912 -0.29917,-4.48662 -1.19483,-5.53914 -2.27501,-3.09103 -5.51194,-9.22724 -8.1278,-11.12797 -0.45091,-0.305 -1.05535,-0.66085 -1.87874,-1.1197 -0.47531,-0.26515 -0.98913,-0.52214 -1.51321,-0.75799 z M 607.61339,871.7518 c -0.26609,-0.10905 -0.67589,-0.11657 -1.60649,-0.13681 -0.32442,-0.007 -0.92834,0.0568 -1.34501,0.14476 -0.41657,0.0878 -0.81313,0.13494 -0.88473,0.10201 -0.19995,-0.092 -1.00156,0.16327 -1.75281,0.55921 -0.74479,0.51046 -0.50258,0.68311 -0.28008,1.39168 0.38084,0.99007 0.43299,1.04555 1.3172,1.40012 2.107,0.84504 3.37496,0.72405 4.05677,-0.38709 0.22568,-0.3677 0.60844,-0.78871 0.84736,-0.9384 0.6754,-0.42311 0.73822,-0.99473 0.19112,-1.64358 -0.21847,-0.25909 -0.33628,-0.40727 -0.54333,-0.4919 z m 109.38114,207.3024 c -2.07229,-0.9959 -3.22144,-0.9744 -4.39114,-0.9631 -1.79018,0.017 -3.26836,-0.2187 -3.83532,1.524 -0.97038,3.6161 4.21516,5.3701 6.24646,5.7957 0.6909,0.2009 1.02823,0.067 1.06346,-0.4232 0.0273,-0.3808 -0.0551,-0.4768 -0.4958,-0.5818 -4.47585,-6.576 4.05302,-3.3683 5.56571,-0.4564 -0.10216,0.2221 1.04395,0.6736 1.22406,0.4825 0.5095,-0.5407 0.0274,-1.2853 -1.59472,-2.4834 -1.2821,-1.1077 -2.5776,-2.3543 -3.78279,-2.8941 z m -163.45102,-49.4765 c -0.0323,-0.015 -0.0688,-0.016 -0.10902,-0.019 -0.21557,-0.014 -0.25394,0.048 -0.17715,0.2909 0.0537,0.1696 0.19056,0.2713 0.30258,0.2327 0.25787,-0.09 0.21483,-0.4112 -0.0165,-0.504 z"
       id="path3002"
       inkscape:connector-curvature="0"
       sodipodi:nodetypes="ccccsccccccccsscccccccccccccsccccccccccccccsccccccccsccccssccccsccscccccccccccccccccccccccccsccscscsccccscccccccccccccscccccccccccscccsccscccccscssccccccccccccccccccssccccsccccccsccccccccccccccccccccccccscccccccccsccccscccccccssccccccccccccsccccccsccscscsccsscsccccccsccccccccscccsscccccccccccsccccccccccccccccccscscccccccccccsccccccscccccccccccccccscccccccscscccccccccsccscscscccccsccccccccsscccsccccccsccccscccccccsscccsccscccscccscccscccscccccccccccsccccccccccccccccssccccsscccccccccccccscccccccsccccccccccccsccccccccccsssccccccccsscccccccccccccccccssccscccccsccccccscccssccscccscscccsscscccccccccssscsccccssccccccccccccsscccccccccssssccccccccsccccscsscsccccscccccccccccccc" />
    <path
       style="fill:#dddddd;fill-opacity:1;stroke:none"
       d="m 692.90117,885.41674 c -12.18455,15.39048 -9.92681,19.1283 -5.37716,13.59749 4.54963,-5.5308 5.61576,-7.84903 6.00623,-10.87915 0.39049,-3.03013 -0.62907,-2.71834 -0.62907,-2.71834 z"
       id="path3941"
       inkscape:connector-curvature="0" />
    <path
       inkscape:connector-curvature="0"
       id="path3943"
       d="m 702.98184,892.76153 c -7.68823,13.04818 -4.68513,15.99189 -1.76268,11.29547 2.92246,-4.69646 3.36243,-6.62865 3.00111,-9.1109 -0.3613,-2.48228 -1.23843,-2.18457 -1.23843,-2.18457 z"
       style="fill:#dddddd;fill-opacity:1;stroke:none" />
    <path
       inkscape:connector-curvature="0"
       id="path3945"
       d="m 677.2402,874.79921 c -16.80821,18.24972 -14.30123,22.85761 -9.01674,16.57374 5.28447,-6.28383 16.13031,-16.83861 16.45031,-20.33832 0.32,-3.4997 -7.43357,3.76458 -7.43357,3.76458 z"
       style="fill:#dddddd;fill-opacity:1;stroke:none"
       sodipodi:nodetypes="cssc" />
    <path
       sodipodi:nodetypes="cssc"
       style="fill:#dddddd;fill-opacity:1;stroke:none"
       d="m 775.6641,1097.4832 c 68.42362,-2.904 68.49112,-20.7739 46.21326,-18.497 -22.27772,2.2768 -64.71799,1.1013 -70.43861,9.0279 -5.72061,7.9265 24.22535,9.4691 24.22535,9.4691 z"
       id="path3953"
       inkscape:connector-curvature="0" />
    <path
       inkscape:connector-curvature="0"
       id="path3955"
       d="m 501.70738,933.0296 c 5.80761,6.64904 8.17985,11.25591 11.6819,11.64592 4.65227,0.51823 3.07207,-6.37627 0.62398,-8.15526 -7.15933,-5.20239 -8.93121,-14.71715 -12.29178,-14.61184 -4.21804,0.13221 -0.0141,11.12118 -0.0141,11.12118 z"
       style="fill:#dddddd;fill-opacity:1;stroke:none"
       sodipodi:nodetypes="csssc" />
    <path
       style="font-size:medium;font-style:normal;font-variant:normal;font-weight:normal;font-stretch:normal;text-indent:0;text-align:start;text-decoration:none;line-height:normal;letter-spacing:normal;word-spacing:normal;text-transform:none;direction:ltr;block-progression:tb;writing-mode:lr-tb;text-anchor:start;baseline-shift:baseline;color:#000000;fill:#000000;fill-opacity:1;stroke:none;stroke-width:5;marker:none;visibility:visible;display:inline;overflow:visible;enable-background:accumulate;font-family:Sans;-inkscape-font-specification:Sans"
       d="m 660.13374,832.88962 c -1.17998,-0.50392 -3.7678,-0.85378 -5.71301,-0.80012 -2.61186,0.072 -11.25167,1.06937 -20.35338,1.88232 -9.08872,0.81178 -17.52762,1.38827 -18.43225,1.4304 -0.90465,0.0421 -2.49849,0.29821 -3.41315,0.97228 -0.91929,0.67746 -1.13021,1.98106 -1.40857,2.91445 -0.55679,1.86677 -0.20877,3.9052 -0.24984,4.79405 -0.0514,1.11184 0.12489,4.55111 0.37664,8.22238 0.25175,3.67126 0.57967,7.49554 0.849,9.2464 0.26801,1.74216 0.72655,3.33008 1.90788,4.58243 1.18135,1.25231 3.04004,2.12009 5.97426,2.55506 3.00386,0.44532 10.39752,0.26881 17.73936,-0.0462 7.34184,-0.31499 14.57175,-0.77855 17.03599,-0.95926 2.51598,-0.18447 4.88669,-0.47682 6.5583,-1.66055 1.6716,-1.18373 2.62855,-3.29464 2.66693,-5.48485 0.0728,-4.1574 -0.416,-18.5502 -0.56419,-22.48314 -0.0767,-2.03566 -0.64227,-3.58513 -1.90942,-4.55208 -0.31677,-0.24176 -0.67116,-0.44568 -1.06449,-0.61366 z m -0.35884,0.83414 c 0.33497,0.14118 0.62488,0.304 0.87647,0.4962 1.00665,0.76816 1.48273,1.97441 1.55407,3.86735 0.14787,3.92431 0.63349,18.38369 0.56255,22.43274 -0.0335,1.91303 -0.76157,2.70329 -2.24759,3.7556 -1.48601,1.05231 -3.54237,1.96455 -5.93933,2.14029 -2.44872,0.17955 -9.88086,1.01344 -17.20993,1.32785 -7.32907,0.31442 -14.82245,0.46311 -17.57003,0.0558 -2.81718,-0.41766 -4.44477,-1.2261 -5.44579,-2.28727 -1.00101,-1.06117 -1.41554,-2.42516 -1.67253,-4.09558 -0.25562,-1.66175 -0.58805,-5.51296 -0.83904,-9.1736 -0.25105,-3.66057 -0.42305,-7.20552 -0.38083,-8.11879 0.0525,-1.13624 -0.25485,-2.98986 0.219,-4.57859 0.23694,-0.79437 0.64729,-1.50537 1.39126,-2.05358 0.74394,-0.54824 1.84241,-0.94201 3.48887,-1.01447 l 0.0128,-7.3e-4 0.008,-0.003 c 0,0 8.44274,-0.97862 17.54187,-1.79134 9.09914,-0.81272 18.89694,-1.46056 21.37622,-1.52894 1.87311,-0.0517 3.26968,0.14612 4.27466,0.56952 z"
       id="path3801"
       inkscape:connector-curvature="0"
       sodipodi:nodetypes="csscsssssssssssscccccsssssssssssscccsscc" />
    <path
       style="font-size:medium;font-style:normal;font-variant:normal;font-weight:normal;font-stretch:normal;text-indent:0;text-align:start;text-decoration:none;line-height:normal;letter-spacing:normal;word-spacing:normal;text-transform:none;direction:ltr;block-progression:tb;writing-mode:lr-tb;text-anchor:start;baseline-shift:baseline;color:#000000;fill:#000000;fill-opacity:1;stroke:none;stroke-width:5;marker:none;visibility:visible;display:inline;overflow:visible;enable-background:accumulate;font-family:Sans;-inkscape-font-specification:Sans"
       d="m 591.72462,836.02129 c -0.70492,-0.25803 -1.53223,-0.41117 -2.4977,-0.46602 -0.56242,-0.032 -1.80079,0.0226 -3.54406,0.0954 -1.74327,0.0728 -4.16563,-0.003 -6.54278,0.048 -8.9235,0.19132 -21.23411,0.59627 -29.14989,0.8335 -4.12394,0.12358 -7.41079,0.35266 -7.41079,0.35266 l -0.0303,-0.002 -0.0224,0.008 c -2.36487,0.44527 -3.82443,1.07088 -4.6502,2.14978 -0.82579,1.07892 -0.91719,2.48981 -0.7731,4.29899 0.0555,0.69723 0.2979,3.15658 0.46618,4.85646 0.48185,4.86729 1.04134,8.28444 1.64457,13.06278 0.14463,1.14582 0.34151,3.1644 0.51709,4.94819 0.0878,0.89186 0.16778,1.72507 0.23872,2.36873 0.0355,0.32186 0.0708,0.59656 0.0995,0.80915 0.0288,0.21257 0.0357,0.32749 0.0838,0.47912 0.30674,0.96822 0.99739,2.16853 2.00161,3.12363 1.00419,0.95514 2.35872,1.66321 3.91002,1.45689 0.15195,-0.0203 0.66641,-0.038 1.37822,-0.0551 0.71183,-0.017 1.64889,-0.0348 2.75019,-0.0695 2.2026,-0.0694 5.06691,-0.20489 8.15957,-0.52344 6.66413,-0.68643 14.83464,-1.68444 21.51013,-2.55078 3.33773,-0.43314 6.30443,-0.83441 8.52024,-1.14574 2.21578,-0.31128 3.61979,-0.52036 4.05172,-0.61903 1.12983,-0.25816 2.03425,-1.03587 2.6158,-2.17931 0.58154,-1.1434 0.87068,-2.6505 0.86814,-4.47867 -0.003,-2.22596 -0.41456,-8.15788 -0.62332,-13.54264 -0.0665,-1.7165 -0.0741,-3.44364 -0.0843,-4.90423 -0.0101,-1.46063 -0.0186,-2.63373 -0.11359,-3.32904 -0.22577,-1.65325 -0.67716,-2.98556 -1.61677,-3.93344 -0.46982,-0.4739 -1.05134,-0.83512 -1.75626,-1.09313 z m -0.53467,0.98909 c 0.59834,0.21738 1.06807,0.51727 1.43937,0.89156 0.74241,0.74898 1.36146,1.71069 1.57418,3.2684 0.0762,0.55814 0.0947,1.75537 0.10478,3.21329 0.0101,1.45787 0.0154,3.19656 0.0827,4.93453 0.20951,5.40529 0.62424,11.39406 0.62719,13.50723 0.002,1.73059 -0.28328,3.10649 -0.77301,4.06939 -0.4897,0.96287 -1.15064,1.51199 -2.00801,1.70787 -0.24755,0.0566 -1.77254,0.29606 -3.98402,0.60675 -2.21145,0.31067 -5.17023,0.7074 -8.50527,1.14021 -6.67008,0.8656 -14.83478,1.86495 -21.4849,2.5499 -3.06187,0.31543 -5.9111,0.44999 -8.1017,0.51905 -1.09532,0.0346 -1.80007,-0.20037 -2.51516,-0.18324 -0.7151,0.0171 -1.19059,0.0278 -1.47626,0.0658 -1.21725,0.16191 -2.29514,-0.3834 -3.17055,-1.21606 -0.87543,-0.83262 -1.73086,-1.70012 -1.98213,-2.49319 0.0112,0.0353 -0.0266,-0.12934 -0.0536,-0.32876 -0.027,-0.19938 -0.0637,-0.46603 -0.0987,-0.78389 -0.07,-0.63574 -0.14823,-1.4702 -0.23596,-2.36128 -0.17542,-1.78223 -0.37174,-3.7918 -0.52027,-4.96826 -0.60524,-4.7942 -0.83083,-7.6893 -1.31001,-12.52948 -0.16818,-1.69913 -0.74714,-4.69485 -0.79947,-5.352 -0.13863,-1.74051 -0.0179,-2.88067 0.59393,-3.68005 0.60986,-0.79679 1.81254,-1.3771 4.07613,-1.8056 0.008,-0.002 0.0127,-0.002 0.0201,-0.003 0.0792,-0.005 3.27055,-0.22083 7.32535,-0.34235 7.90539,-0.23691 20.42648,-0.47821 29.35202,-0.66962 2.38849,-0.0512 4.60994,-0.13946 6.35325,-0.21224 1.74331,-0.0728 2.8338,0.0279 3.24178,0.051 0.90094,0.0512 1.62992,0.18677 2.22825,0.40419 z"
       id="path3026"
       inkscape:connector-curvature="0"
       sodipodi:nodetypes="ccssscccsssssscccccsssssssssscccccssssscssscccscccsssssccsssccc" />
    <path
       style="fill:#000000"
       d="m 241.25082,726.44644 c -5.68704,0.17772 -11.49239,4.04956 -16.74957,8.83771 -9.09249,8.51041 -19.32692,19.7076 -25.92395,29.79572 -12.4461,17.99728 -18.76765,36.4999 -23.35681,56.94012 -2.23445,11.801 -1.64962,34.72327 -2.02005,41.57933 -0.0482,0.89213 -0.55389,1.3305 -0.92586,1.26253 -3.41925,1.01704 -6.6897,1.44689 -9.6794,1.93588 -2.70106,-0.99641 -2.26756,-5.56245 -2.9459,-8.79563 -0.39205,-1.87186 -0.78957,-3.59558 -0.88377,-3.87176 -6.51334,-19.53924 -12.09857,-40.94824 -20.91592,-59.54935 -0.37667,-1.43837 -1.13714,-2.30617 -1.64129,-3.493 -2.07126,-5.0055 -4.52894,-11.12641 -7.15434,-15.44495 -2.70136,-4.54418 -4.99031,-7.30451 -9.55315,-10.2265 -0.49608,-0.3116 -1.01525,-0.59062 -1.5992,-0.84168 -4.08777,-1.75735 -10.06147,-2.10297 -14.05617,-2.14631 -4.860256,-0.0528 -22.223664,2.17752 -34.467084,25.20853 -15.722886,11.55843 -5.551093,42.54929 -13.130315,55.34091 -1.166551,2.2333 -1.870498,4.37458 -0.67335,6.31265 12.468454,5.61996 22.497281,-3.13828 30.21656,-11.23652 5.100717,-5.15027 9.815833,-11.75641 13.1724,-17.42292 0.522532,-0.83969 1.038629,-0.69366 4.208439,1.13628 0.24728,-0.27568 6.48105,4.73761 6.69141,4.75553 0.0908,-0.007 0.22864,0.16431 0.33667,0.37876 0.10787,0.21433 0.55268,0.67569 0.96794,1.05211 3.45473,3.5742 6.47477,6.73554 9.72149,10.22649 9.57069,9.48319 16.60156,20.71828 23.23056,33.54123 0.23134,0.29657 0.4413,0.71336 0.46292,0.92585 0.0218,0.21204 0.14823,0.39678 0.29459,0.37876 0.14632,-0.018 0.22259,0.0504 0.16834,0.16834 -0.11528,0.25075 1.13174,0.64685 2.10422,0.67335 0.77583,0.0211 2.35376,-0.80755 2.9459,-1.55712 0.22611,-1.29806 0.13117,-2.8833 -0.12618,-4.12427 -0.005,-0.9427 -1.14561,-5.50549 -0.96794,-5.93389 -2.46506,-7.29033 -2.74295,-16.09797 -5.47097,-22.51513 -0.229,-0.38065 -0.37539,-0.75751 -0.33667,-0.84168 -4.16296,-12.44758 -9.57708,-27.21523 -14.39285,-37.87591 -0.30029,-0.65286 -0.48575,-1.27679 -0.42084,-1.43087 0.0649,-0.15395 -0.0178,-0.34819 -0.16834,-0.42084 -0.32174,-0.15537 -1.26388,-2.2897 -1.13628,-2.56715 -0.85141,-2.22054 -2.76115,-4.00628 -3.82967,-5.80764 -1.11866,-1.48774 -1.855,-2.99432 -3.45092,-3.91384 -0.18792,-0.10639 -0.35806,-0.15441 -0.50501,-0.21042 -0.44082,-0.16982 -0.80201,-0.15622 -1.51504,0.0842 -0.60938,0.20521 -1.13891,0.53816 -1.22044,0.71544 -0.0816,0.17729 -0.35464,0.30962 -0.58918,0.29459 -0.23472,-0.0153 -0.37843,0.0558 -0.33668,0.16834 -10.88778,10.00947 -17.385819,32.30294 -22.304704,40.14846 -3.400563,3.45885 -6.504583,8.05496 -8.837713,10.01608 -5.625983,5.94702 -16.006554,11.97797 -22.851799,11.69944 -1.687696,-0.10383 -4.815055,-1.38259 -5.344711,-2.18838 -0.170223,-0.25895 -0.269758,-0.73556 -0.210422,-1.05211 0.519691,-2.93998 1.933442,-4.20691 2.861735,-6.94392 4.636914,-15.5233 3.19631,-41.32696 11.951954,-51.17456 7.820039,-8.79531 18.876577,-23.42087 32.90996,-23.56723 16.58263,0.0281 20.83804,7.58314 27.77567,21.54718 0.32104,0.58117 0.66722,1.37292 0.75752,1.72546 0.0902,0.35262 0.41726,0.89849 0.71543,1.22044 0.2982,0.32203 0.51197,0.65086 0.46293,0.75752 -0.0492,0.1068 0.0385,0.2576 0.21042,0.33668 0.17201,0.0792 0.29623,0.22653 0.29459,0.33667 -0.001,0.1103 0.44336,0.99756 0.96794,1.93588 0.52454,0.93845 1.11439,2.01282 1.30461,2.39881 8.24774,22.14535 17.70436,41.44053 20.83176,64.38905 0.0198,0.81486 0.12874,1.56347 0.50501,3.07215 0.10706,0.42937 0.47966,2.68354 0.54709,3.36675 0.0292,0.29597 0.17086,0.90944 0.33668,1.38878 0.16576,0.47944 0.27007,1.00658 0.21042,1.13628 -0.0595,0.12955 0.23843,0.46678 0.67335,0.75752 0.82623,0.55277 2.33088,0.67218 2.9459,0.25251 1.62077,-0.40594 3.25867,-0.45057 4.88179,-0.75752 2.65664,-1.11651 5.48404,0.17693 7.86977,-0.16834 0.59132,-0.27238 0.61874,-0.3677 0.7996,-1.72546 0.10383,-0.77949 0.14625,-1.60243 0.0842,-1.85171 -0.23539,-1.41858 -0.15061,-2.45179 -0.46293,-3.70342 -0.17683,-0.43577 -0.33293,-1.20667 -0.33667,-1.72546 -0.5374,-12.78841 0.55843,-27.13273 2.6934,-38.88593 3.42933,-17.50628 9.61108,-36.33975 21.00008,-53.27878 8.1953,-12.06148 17.4083,-22.23806 29.62738,-31.89994 4.58091,-3.56342 9.06542,-6.05715 13.08823,-6.22848 4.6189,0.6662 6.4628,2.03849 9.04814,4.62928 2.35683,3.04374 2.30873,7.47201 2.48298,11.19443 0.0809,2.16339 -0.0381,4.24309 -0.2946,6.27057 -0.14918,3.63663 -0.7427,7.02185 -1.38878,10.60526 -0.017,0.0659 -0.0373,0.28667 -0.042,0.50501 -0.008,0.36785 -0.5564,3.19686 -0.84168,4.2926 -2.66756,16.40127 -9.64132,33.228 -17.80168,47.42906 -4.57643,8.1923 -10.94229,16.85496 -17.08624,23.60931 -0.51979,0.57009 -0.98726,1.10327 -1.05211,1.22045 -0.0645,0.11757 -0.39192,0.58981 -0.75752,1.01003 -0.85192,0.97914 -3.3696,4.16818 -3.70342,4.71344 -0.21981,0.359 -0.88505,1.13271 -1.8938,2.18839 -0.14643,0.15337 -0.29136,0.4262 -0.33667,0.58918 -0.0454,0.16307 -0.19983,0.23128 -0.33668,0.16834 -0.13693,-0.063 -0.27603,0.0351 -0.29459,0.21042 -0.0186,0.17536 -0.398,0.77319 -0.84169,1.30461 -0.78948,0.94568 -1.1616,1.55765 -3.45091,5.80764 -0.66164,1.22822 -1.17461,2.02611 -1.26253,1.8938 -0.0866,-0.13036 -0.23142,0.004 -0.29459,0.33667 -0.0599,0.3157 -0.34447,1.62622 -0.67335,2.94591 -0.90904,3.64793 -1.15325,5.08457 -0.96794,6.06014 0.0929,0.48932 0.11447,1.05584 0.042,1.22045 -0.0727,0.1645 -0.0471,0.57737 0.042,0.96794 0.13901,0.60879 0.30033,0.79236 1.09419,1.01002 0.50935,0.13983 1.97489,0.66348 3.28258,1.17836 1.30766,0.51495 3.49951,1.20441 4.88179,1.55712 2.93832,0.74986 5.55618,1.77427 11.0261,4.29261 2.18547,1.00507 3.96099,1.84069 3.95592,1.85171 6.80842,3.785 11.47784,8.61926 16.79166,13.46699 0.37943,0.26935 2.9011,3.3128 3.03007,3.66134 0.0327,0.0887 0.42628,0.65806 0.88377,1.26253 0.53834,0.71114 0.73547,1.20353 0.67335,1.47295 5.20177,0.82431 1.16833,-2.11433 -0.5471,-4.96595 -2.93655,-2.58581 -5.3763,-5.61388 -8.41686,-7.91186 -0.60164,-0.45092 -1.76945,-1.41359 -2.60923,-2.1463 -1.59919,-1.39526 -2.27285,-1.89009 -3.493,-2.60923 -0.40504,-0.23874 -0.86201,-0.55752 -1.01003,-0.71543 -1.89326,-2.02009 -17.72578,-9.18504 -19.99006,-9.04814 -0.29681,0.0179 -1.57074,-0.40876 -2.81965,-0.92585 -1.24895,-0.51702 -2.58735,-1.02694 -2.98799,-1.13628 -0.82628,-0.22552 -1.177,-1.01712 -1.13628,-2.48298 0.0135,-0.47194 -0.0171,-0.85293 -0.0842,-0.88377 -0.0671,-0.0308 0.003,-0.3452 0.16834,-0.67335 0.16602,-0.32814 0.31041,-0.8648 0.33667,-1.22044 0.0535,-0.72458 2.15246,-5.87256 3.95593,-9.72149 1.83784,-3.92243 4.9393,-8.81519 6.1864,-9.76357 0.20928,-0.15916 0.44583,-0.45316 0.5471,-0.67335 0.10127,-0.22018 0.37648,-0.46839 0.58918,-0.54709 0.26573,-0.0983 0.29471,-0.17513 0.12618,-0.25251 -0.15252,-0.0702 0.0637,-0.35511 0.5471,-0.75752 0.85309,-0.7098 1.77565,-1.88839 1.8938,-2.35672 0.0416,-0.16467 0.20992,-0.22664 0.33667,-0.16834 0.12673,0.0583 0.32668,-0.16669 0.46293,-0.46293 0.13631,-0.29642 0.39116,-0.52782 0.5471,-0.54709 0.15586,-0.0193 0.33487,-0.1918 0.42084,-0.37876 0.14441,-0.31398 0.61801,-0.77369 2.18839,-2.1463 5.38363,-6.17622 11.58632,-14.42606 15.52912,-20.95801 7.65053,-10.56911 13.93831,-29.28679 15.61329,-41.87392 0.008,-0.0698 0.0685,-0.23886 0.0842,-0.37876 0.0158,-0.13977 0.13554,-0.81063 0.29459,-1.47295 0.77824,-5.84743 2.34491,-11.93099 2.86173,-17.42292 0.1138,-1.23647 0.24916,-2.44162 0.2946,-2.65131 0.16887,-0.77943 0.37185,-3.48785 0.29459,-4.0401 -0.044,-0.31433 0.001,-1.2369 0.12618,-2.06213 -0.27545,-7.17293 -2.12335,-11.68341 -6.64933,-15.82372 -0.3105,-0.28435 -1.32625,-0.88766 -2.27255,-1.38878 -1.84628,-0.8635 -3.74362,-1.2376 -5.6393,-1.17836 z"
       id="path4026"
       inkscape:connector-curvature="0"
       sodipodi:nodetypes="cccccccccccccccccccccccccccccsccccccccccccccccccccccsccccccccccccccccccsccccccccccccccccsccccccccccccccccccccccccsccccccsccccsccccccccccccccccccccc" />
    <path
       style="fill:#000000"
       d="m 213.55932,775.43262 c -3.50448,-0.0135 -6.0876,3.73927 -7.95394,5.97597 -10.25814,16.95663 -17.90693,32.9509 -20.958,49.86995 -0.48578,4.45013 -1.78671,11.71331 -1.76754,19.52714 0.0163,6.64914 -0.55304,14.40271 1.5992,17.465 0.46456,0.12713 1.25018,0.35059 1.76754,0.50501 0.51741,0.15435 1.24864,0.15854 1.59921,0.042 0.35057,-0.11649 1.3429,-0.11838 2.23047,-0.042 2.15344,0.18493 2.73762,-0.0356 3.28258,-1.22044 0.23972,-0.52127 0.42794,-1.04545 0.37876,-1.17837 -0.0492,-0.13291 -0.0793,-0.33982 -0.042,-0.42084 5.95755,-21.84334 18.85255,-44.38226 25.92396,-59.6756 2.70937,-5.44345 3.47296,-13.75046 3.24049,-19.40088 -0.0361,-2.49102 -1.10958,-4.36853 -1.80963,-6.27057 -0.91528,-3.29483 -4.02415,-4.38081 -6.77557,-5.09221 -0.24166,-0.0359 -0.4818,-0.0832 -0.71544,-0.0842 z"
       id="path4024"
       inkscape:connector-curvature="0" />
    <path
       style="fill:#000000"
       d="m 96.017746,831.57313 c -0.411955,0.003 -0.808288,0.0634 -1.178361,0.16834 -0.05481,0.11918 -0.13669,0.11124 -0.210422,0 -0.0738,-0.11124 -0.506736,-0.0207 -0.925855,0.16834 l -0.757519,0.33667 0.757519,0.21042 c 16.593042,7.31585 34.685322,28.99749 42.589362,43.30479 0.96213,1.85062 0.98456,4.21337 2.73548,3.78759 0.57411,-0.15359 1.29147,-1.53795 0.88377,-1.72545 -0.15978,-0.0735 -0.45058,-0.62231 -0.63126,-1.22045 -9.03687,-15.29476 -25.4447,-35.82394 -39.13845,-43.89397 -1.466849,-0.69905 -2.888398,-1.14399 -4.124264,-1.13628 z"
       id="path4022"
       inkscape:connector-curvature="0" />
    <path
       style="fill:#000000"
       d="m 134.10408,880.81182 c -1.74101,0.0213 -16.04992,9.23346 -18.51711,11.36277 -0.48053,0.51313 -1.16799,1.12712 -1.55712,1.3467 -4.66669,3.26598 -7.8104,7.99798 -11.53111,11.90987 2.10806,-0.043 5.18453,-0.16534 8.41687,-0.29459 -0.38949,-0.20853 -0.73117,-0.50196 -0.79961,-0.75752 0.32987,-2.57391 6.47803,-10.3877 8.33271,-11.27861 3.98912,-3.6113 8.87711,-6.45909 12.83572,-9.42689 1.08657,-0.84395 1.65049,-1.25396 1.72546,-1.22045 1.23814,-1.17599 1.49597,-1.64619 1.09419,-1.64128 z"
       id="path4020"
       inkscape:connector-curvature="0"
       sodipodi:nodetypes="cccccccccc" />
    <path
       style="fill:#000000"
       d="m 190.11834,885.60943 c -1.1099,-0.007 -2.16622,0.482 -3.45091,0.96794 -0.77115,0.28545 -1.98275,1.24912 -2.02005,1.59921 -0.0404,0.37796 0.52667,0.69769 0.67335,0.37875 0.0557,-0.12133 0.23976,-0.1675 0.42084,-0.0842 0.18111,0.0832 0.57142,0.0174 0.84169,-0.16834 0.52688,-0.36097 3.91967,-0.57341 4.79761,-0.29459 0.29196,0.0927 0.57262,0.28589 0.58919,0.42084 0.0166,0.13498 0.53877,0.46337 1.17836,0.75752 l 1.17836,0.5471 0.16834,-0.71544 c 0.11379,-0.38748 0.0964,-0.69038 -0.042,-0.67335 -0.13846,0.0171 -0.17865,-0.0545 -0.12619,-0.16833 0.0524,-0.11394 -0.14726,-0.4306 -0.42084,-0.71544 -1.518,-1.35704 -2.67768,-1.84483 -3.78759,-1.85171 z"
       id="path4018"
       inkscape:connector-curvature="0" />
    <path
       style="fill:#000000"
       d="m 162.51101,893.43712 c -0.35736,0.11366 -0.76223,0.56106 -0.84168,1.01002 -0.12619,0.71219 -1.96155,3.35744 -2.77757,4.0401 -0.3719,0.3113 -1.03541,0.70279 -1.47295,0.88377 -0.43765,0.18129 -0.80232,0.4194 -0.84169,0.50501 -0.0392,0.0852 -0.66602,0.38112 -1.38878,0.67335 -0.7228,0.29229 -1.34416,0.62598 -1.38879,0.71544 -0.0443,0.09 -0.62313,0.24522 -1.26253,0.37876 -0.63938,0.13345 -1.2691,0.34621 -1.38878,0.46292 1.79687,1.62473 8.8717,-1.82127 9.84774,-2.81965 0.52067,-0.56938 1.10743,-1.18505 1.30461,-1.38878 0.97177,-1.00341 1.31363,-4.08345 0.50501,-4.46094 -0.096,-0.0448 -0.17547,-0.0378 -0.29459,0 z"
       id="path4016"
       inkscape:connector-curvature="0" />
    <path
       style="fill:#000000"
       d="m 251.59155,900.63948 -17.80168,0.84869 c -17.53645,1.69945 -35.49589,1.39347 -51.51124,3.46853 -8.10289,3.43954 -3.49934,15.2062 -6.22848,18.15449 -1.92941,0.39951 -3.57444,0.73706 -5.47097,0.70109 -1.33406,-1.27188 -1.07139,-2.81971 -1.47295,-4.28034 -0.83276,-3.3759 -1.01836,-6.91936 -3.32466,-9.96282 -1.81855,-2.265 -5.23485,-3.69534 -9.51107,-4.02203 -1.34354,-0.10261 -2.64437,-0.26583 -2.90381,-0.33209 -1.24773,0.0217 -2.52516,0.071 -3.7876,0.1107 l -13.84575,0.62729 c -6.29542,0.34659 -12.60818,0.70341 -18.8117,0.84868 -0.20902,0.005 -0.42254,0.0325 -0.63126,0.0369 l -2.27256,0.11057 c -10.07317,0.0836 -17.851176,-1.54209 -29.501124,1.91915 -4.355281,4.45109 -4.090774,17.82207 -3.43417,21.7702 l 0.362013,19.00307 0,0.0369 0,0.0369 -0.168338,1.21767 c 0.368803,3.61369 2.172682,4.44218 5.912317,5.92817 21.840182,4.67704 45.996572,1.28254 67.104022,-0.83606 4.09558,-0.48559 8.25346,-0.87288 11.5732,-2.58295 0.56308,-0.36683 1.09397,-0.76757 1.51503,-1.18078 0.68437,-0.44985 1.44677,-2.07285 1.59921,-3.35784 0.0694,-0.58335 0.26923,-1.29763 0.42084,-1.58667 1.23265,-4.49144 0.47446,-8.70605 1.09419,-12.84098 0.42167,-2.83869 0.93701,-3.78661 2.39881,-4.20653 1.51172,-0.35013 4.98267,1.90059 4.8397,3.02575 0.58082,6.22514 1.2833,11.48766 3.91384,17.0106 0.36473,0.78122 0.30666,0.77566 4.16635,2.21396 l 11.53112,2.02947 0.042,0 2.06214,0.1476 c 0.0226,-0.005 0.0637,0.005 0.0842,0 0.31836,-0.083 1.12784,-0.0556 1.76755,0.0368 6.02124,0.12012 11.84159,0.0742 17.59125,-0.0738 l 38.92802,-2.02947 c 0.21084,-0.0658 0.42118,-0.11783 0.63127,-0.22139 6.03465,-4.58786 2.14092,-14.23185 3.36674,-20.25775 l -0.0842,-0.81178 0.16833,-9.55694 0.12619,-1.43907 c -0.12201,-2.77262 -0.10154,-5.28038 -0.42085,-8.15476 -0.19546,-5.45213 -1.2214,-9.7741 -10.01607,-11.54949 z"
       id="path4014"
       inkscape:connector-curvature="0"
       sodipodi:nodetypes="cccccccccccccccccccccccccccccccccccccccccccccc" />
    <path
       style="fill:#000000"
       d="m 178.37681,957.9945 c -0.43689,-0.009 -1.2485,0.092 -1.80962,0.21042 -0.561,0.11824 -1.08194,0.17067 -1.17837,0.12619 -0.26927,-0.1239 -1.34501,0.22431 -2.35672,0.75752 -1.00301,0.68743 -0.6784,0.89748 -0.37876,1.85171 0.51288,1.33333 0.57678,1.4163 1.76754,1.8938 2.8375,1.13801 4.55278,0.99135 5.47097,-0.50502 0.30392,-0.49518 0.81452,-1.06094 1.13628,-1.26253 0.90956,-0.5698 0.98928,-1.35666 0.2525,-2.23047 -0.29421,-0.34891 -0.4366,-0.55938 -0.71543,-0.67335 -0.35835,-0.14685 -0.93515,-0.14108 -2.18839,-0.16833 z"
       id="path4010"
       inkscape:connector-curvature="0" />
    <path
       style="fill:#000000"
       d="m 191.63338,958.75202 c 1.99623,0.88128 4.05801,2.48348 4.08218,3.95593 -1.69336,7.06504 -13.52708,2.74759 -20.41091,6.27057 -3.18192,1.66172 -5.86211,2.32286 -7.28059,1.3467 -1.0416,-0.71676 -0.85111,-1.82032 -0.63126,-3.19841 0.10383,-0.65092 0.099,-1.21679 0,-1.26253 -2.07225,0.79732 -5.39306,2.89987 -4.88179,5.05012 5.30827,4.76239 10.98759,1.47852 16.07622,-0.5471 0.1305,-0.13731 0.38807,-0.2415 0.63127,-0.25251 0.34543,-0.13912 0.71238,-0.28831 1.05211,-0.42084 0.60848,-0.44588 1.47127,-0.71158 2.27255,-0.75752 0.009,-0.003 0.0361,-10e-4 0.042,0 6.32885,-0.44814 14.6144,2.24731 17.465,-5.89181 -0.5124,-1.1784 -1.91923,-2.43422 -0.96794,-2.81965 l -0.33667,-0.042 -7.11226,-1.43087 z"
       id="path4006"
       inkscape:connector-curvature="0" />
    <path
       style="fill:#000000"
       d="m 299.99903,990.65066 c -0.15598,0.019 -0.31203,0.073 -0.33668,0.1262 -0.0246,0.053 0.0469,0.1546 0.16834,0.2104 0.12134,0.056 0.27757,-0.039 0.33668,-0.1683 0.0444,-0.097 10e-4,-0.1453 -0.0842,-0.1684 -0.0292,-0.01 -0.0453,0 -0.0842,0 z"
       id="path3903"
       inkscape:connector-curvature="0" />
    <path
       style="font-size:medium;font-style:normal;font-variant:normal;font-weight:normal;font-stretch:normal;text-indent:0;text-align:start;text-decoration:none;line-height:normal;letter-spacing:normal;word-spacing:normal;text-transform:none;direction:ltr;block-progression:tb;writing-mode:lr-tb;text-anchor:start;baseline-shift:baseline;color:#000000;fill:#000000;fill-opacity:1;stroke:none;stroke-width:1px;marker:none;visibility:visible;display:inline;overflow:visible;enable-background:accumulate;font-family:Sans;-inkscape-font-specification:Sans"
       d="m 91.770491,960.2368 c -24.992755,35.26004 19.569559,48.5966 40.452959,53.5449 l 0.50592,-2.2405 c -18.03784,-4.5095 -37.654208,-19.14353 -42.228841,-25.95684 -2.287316,-3.40655 -3.121821,-6.96965 -2.674148,-10.76881 0.447671,-3.79914 2.805501,-8.9807 5.823242,-13.20554 z"
       id="path4028"
       inkscape:connector-curvature="0"
       sodipodi:nodetypes="cccsscc" />
    <path
       style="font-size:medium;font-style:normal;font-variant:normal;font-weight:normal;font-stretch:normal;text-indent:0;text-align:start;text-decoration:none;line-height:normal;letter-spacing:normal;word-spacing:normal;text-transform:none;direction:ltr;block-progression:tb;writing-mode:lr-tb;text-anchor:start;baseline-shift:baseline;color:#000000;fill:#000000;fill-opacity:1;stroke:none;stroke-width:1px;marker:none;visibility:visible;display:inline;overflow:visible;enable-background:accumulate;font-family:Sans;-inkscape-font-specification:Sans"
       d="m 262.25493,954.12242 -2.03545,1.48745 c 3.26877,4.57632 5.15175,8.95871 5.63666,13.07393 0.4849,4.11521 -0.41902,7.97472 -2.89662,11.66477 -4.9552,7.38009 -25.409,24.18333 -44.94746,29.06793 l 0.62631,2.4269 c 19.82869,-4.9572 46.57115,-17.85423 52.12878,-26.13159 5.68118,-9.70917 -2.98846,-23.74336 -8.51222,-31.58939 z"
       id="path4030"
       inkscape:connector-curvature="0"
       sodipodi:nodetypes="ccsscccc" />
  </g>
  <g
     inkscape:groupmode="layer"
     id="layer2"
     inkscape:label="Layer"
     style="display:inline" />
</svg>
